<svg width="18" height="21" viewBox="0 0 18 21" fill="none" xmlns="http://www.w3.org/2000/svg">
<path d="M12.993 0.5C11.7168 0.5 10.4406 1.02549 9.46465 1.97638L2.50813 8.78276C-0.169378 11.4603 -0.169378 15.7893 2.50813 18.4919C5.18564 21.1694 9.5147 21.1694 12.2172 18.4919L15.3452 15.3639L13.6185 13.6373L10.7158 16.465L10.4906 16.7903C8.764 18.5169 5.96137 18.5169 4.23475 16.7903C2.53316 15.0887 2.5832 12.3361 4.23475 10.6095L11.1913 3.72803C12.1672 2.75211 13.7937 2.75211 14.7946 3.72803C15.7706 4.70394 15.7205 6.2554 14.7946 7.25633L8.53879 13.4371C8.28855 13.6874 7.86315 13.6874 7.58789 13.4371C7.33766 13.1869 7.33766 12.7615 7.58789 12.4862L7.73804 12.4112L10.0152 10.059L8.28855 8.33234L5.86128 10.7596C4.66015 11.9607 4.66015 13.9376 5.86128 15.1387C7.0624 16.3398 9.03926 16.3649 10.2404 15.1387L16.4962 9.033C18.4481 7.08117 18.4481 3.92821 16.4962 2.00141C15.5203 1.02549 14.2692 0.525023 12.9679 0.525023L12.993 0.5Z" fill="#9B3FC6"/>
</svg>
