<svg width="21" height="21" viewBox="0 0 21 21" fill="none" xmlns="http://www.w3.org/2000/svg">
<path d="M0.5 0.5V3.35714H3.35714V0.5H0.5ZM6.21429 0.5V3.35714H9.07143V0.5H6.21429ZM11.9286 0.5V3.35714H14.7857V0.5H11.9286ZM17.6429 0.5V3.35714H20.5V0.5H17.6429ZM0.5 6.21429V9.07143H3.35714V6.21429H0.5ZM6.21429 6.21429V9.07143H9.07143V6.21429H6.21429ZM11.9286 6.21429V9.07143H14.7857V6.21429H11.9286ZM17.6429 6.21429V9.07143H20.5V6.21429H17.6429ZM0.5 11.9286V14.7857H3.35714V11.9286H0.5ZM6.21429 11.9286V14.7857H9.07143V11.9286H6.21429ZM11.9286 11.9286V14.7857H14.7857V11.9286H11.9286ZM17.6429 11.9286V14.7857H20.5V11.9286H17.6429ZM0.5 17.6429V20.5H3.35714V17.6429H0.5ZM6.21429 17.6429V20.5H9.07143V17.6429H6.21429ZM11.9286 17.6429V20.5H14.7857V17.6429H11.9286ZM17.6429 17.6429V20.5H20.5V17.6429H17.6429Z" fill="#9B3FC6"/>
</svg>
