<svg width="14" height="21" viewBox="0 0 14 21" fill="none" xmlns="http://www.w3.org/2000/svg">
<path d="M5.51873 0.5V2.99688H3.64607C1.94819 2.99688 0.524969 4.4201 0.524969 6.11798V7.36642C0.524969 9.06429 1.6236 10.4625 3.24657 10.887L9.63858 12.535C9.98814 12.6348 10.4875 13.2591 10.4875 13.6336V14.882C10.4875 15.2316 10.2129 15.5062 9.8633 15.5062H3.6211C3.32147 15.5062 3.09675 15.4064 2.99688 15.3564V13.0094H0.5V15.5062C0.5 16.3552 0.999376 17.0793 1.59863 17.4538C2.17291 17.8533 2.897 18.0031 3.6211 18.0031H5.49376V20.5H7.99064V18.0031H9.8633C11.5861 18.0031 12.9844 16.6049 12.9844 14.882V13.6336C12.9844 11.9357 11.8858 10.5375 10.2628 10.113L3.87079 8.46504C3.52122 8.36517 3.02185 7.74095 3.02185 7.36642V6.11798C3.02185 5.76841 3.2965 5.49376 3.64607 5.49376H9.88826C10.1629 5.49376 10.4126 5.59363 10.5125 5.64357V7.99064H13.0094V5.49376C13.0094 4.64482 12.51 3.92072 11.9107 3.54619C11.3365 3.14669 10.6124 2.99688 9.88826 2.99688H8.01561V0.5L5.51873 0.5Z" fill="#9B3FC6"/>
</svg>
