<svg width="24" height="21" viewBox="0 0 24 21" fill="none" xmlns="http://www.w3.org/2000/svg">
<path d="M6.3651 0.5C4.7522 0.5 3.31525 1.17449 2.23021 2.23021C1.17449 3.28592 0.5 4.72287 0.5 6.3651C0.5 7.97801 1.17449 9.41496 2.23021 10.5L12.2302 20.5L22.2302 10.5C23.2859 9.44428 23.9604 8.00733 23.9604 6.3651C23.9604 4.7522 23.2859 3.31525 22.2302 2.23021C21.1745 1.17449 19.7375 0.5 18.0953 0.5C16.4824 0.5 15.0455 1.17449 13.9604 2.23021C12.9047 3.28592 12.2302 4.72287 12.2302 6.3651C12.2302 4.7522 11.5557 3.31525 10.5 2.23021C9.44428 1.17449 8.00733 0.5 6.3651 0.5Z" fill="#9B3FC6"/>
</svg>
