<svg width="16" height="16" viewBox="0 0 16 16" fill="none" xmlns="http://www.w3.org/2000/svg">
<path d="M7.19893 0.518582C3.61265 0.518582 0.695312 3.43592 0.695312 7.0222C0.695312 10.6085 3.61265 13.5258 7.19893 13.5258C8.29526 13.5258 9.373 13.2657 10.2835 12.764C10.3564 12.8517 10.4373 12.9326 10.5251 13.0055L12.3832 14.8637C12.5548 15.0568 12.7641 15.2127 12.9981 15.322C13.2321 15.4313 13.486 15.4916 13.7442 15.4992C14.0024 15.5068 14.2594 15.4615 14.4994 15.3662C14.7395 15.2709 14.9575 15.1275 15.1402 14.9449C15.3228 14.7622 15.4662 14.5442 15.5615 14.3041C15.6568 14.0641 15.7021 13.8071 15.6945 13.5489C15.6869 13.2907 15.6266 13.0368 15.5173 12.8028C15.408 12.5687 15.2521 12.3595 15.059 12.1879L13.2008 10.3298C13.1103 10.2392 13.0107 10.1583 12.9035 10.0882C13.4052 9.17769 13.7211 8.11853 13.7211 7.00362C13.7211 3.41734 10.8038 0.5 7.21751 0.5L7.19893 0.518582ZM7.19893 2.37676C9.7818 2.37676 11.8444 4.43934 11.8444 7.0222C11.8444 8.2486 11.3984 9.38209 10.618 10.2183C10.5994 10.2368 10.5808 10.2554 10.5622 10.274C10.4745 10.3469 10.3936 10.4278 10.3207 10.5156C9.50307 11.2588 8.38817 11.6862 7.18035 11.6862C4.59748 11.6862 2.53491 9.62365 2.53491 7.04078C2.53491 4.45792 4.59748 2.39534 7.18035 2.39534L7.19893 2.37676Z" fill="black" fill-opacity="0.6"/>
</svg>
