<svg width="13" height="20" viewBox="0 0 13 20" fill="none" xmlns="http://www.w3.org/2000/svg">
<path d="M5.01873 0V2.49688H3.14607C1.44819 2.49688 0.0249688 3.9201 0.0249688 5.61798V6.86642C0.0249688 8.56429 1.1236 9.96255 2.74657 10.387L9.13858 12.035C9.48814 12.1348 9.98752 12.7591 9.98752 13.1336V14.382C9.98752 14.7316 9.71286 15.0062 9.3633 15.0062H3.1211C2.82147 15.0062 2.59675 14.9064 2.49688 14.8564V12.5094H0V15.0062C0 15.8552 0.499376 16.5793 1.09863 16.9538C1.67291 17.3533 2.397 17.5031 3.1211 17.5031H4.99376V20H7.49064V17.5031H9.3633C11.0861 17.5031 12.4844 16.1049 12.4844 14.382V13.1336C12.4844 11.4357 11.3858 10.0375 9.7628 9.61298L3.37079 7.96504C3.02122 7.86517 2.52185 7.24095 2.52185 6.86642V5.61798C2.52185 5.26841 2.7965 4.99376 3.14607 4.99376H9.38826C9.66292 4.99376 9.91261 5.09363 10.0125 5.14357V7.49064H12.5094V4.99376C12.5094 4.14482 12.01 3.42072 11.4107 3.04619C10.8365 2.64669 10.1124 2.49688 9.38826 2.49688H7.51561V0L5.01873 0Z" fill="#9B3FC6"/>
</svg>
