<svg width="21" height="21" viewBox="0 0 21 21" fill="none" xmlns="http://www.w3.org/2000/svg">
<path d="M14.264 0.5C10.8184 0.5 8.02185 3.2965 8.02185 6.7422C8.02185 7.5412 8.2216 8.29026 8.49625 9.01436L1.23034 16.2054C0.256554 17.1792 0.256554 18.8271 1.23034 19.8009C1.72971 20.3002 2.3789 20.5 3.02809 20.5C3.67728 20.5 4.32647 20.2753 4.82584 19.8009L12.0169 12.535C12.716 12.8096 13.465 13.0094 14.289 13.0094C17.7347 13.0094 20.5312 10.2129 20.5312 6.76717C20.5312 6.36767 20.5312 5.96816 20.4563 5.59363L18.0343 8.01561H13.0406V3.02185L15.4625 0.599875C15.088 0.524969 14.6885 0.524969 14.289 0.524969L14.264 0.5ZM3.02809 16.7297C3.72722 16.7297 4.27653 17.279 4.27653 17.9782C4.27653 18.6773 3.72722 19.2266 3.02809 19.2266C2.32896 19.2266 1.77965 18.6773 1.77965 17.9782C1.77965 17.279 2.32896 16.7297 3.02809 16.7297Z" fill="#9B3FC6"/>
</svg>
