<svg width="18" height="20" viewBox="0 0 18 20" fill="none" xmlns="http://www.w3.org/2000/svg">
<path d="M12.493 0C11.2168 0 9.94057 0.525493 8.96465 1.47638L2.00813 8.28276C-0.669378 10.9603 -0.669378 15.2893 2.00813 17.9919C4.68564 20.6694 9.0147 20.6694 11.7172 17.9919L14.8452 14.8639L13.1185 13.1373L10.2158 15.965L9.99062 16.2903C8.264 18.0169 5.46137 18.0169 3.73475 16.2903C2.03316 14.5887 2.0832 11.8361 3.73475 10.1095L10.6913 3.22803C11.6672 2.25211 13.2937 2.25211 14.2946 3.22803C15.2706 4.20394 15.2205 5.7554 14.2946 6.75633L8.03879 12.9371C7.78855 13.1874 7.36315 13.1874 7.08789 12.9371C6.83766 12.6869 6.83766 12.2615 7.08789 11.9862L7.23804 11.9112L9.51517 9.55896L7.78855 7.83234L5.36128 10.2596C4.16015 11.4607 4.16015 13.4376 5.36128 14.6387C6.5624 15.8398 8.53926 15.8649 9.74038 14.6387L15.9962 8.533C17.9481 6.58117 17.9481 3.42821 15.9962 1.50141C15.0203 0.525493 13.7692 0.0250235 12.4679 0.0250235L12.493 0Z" fill="#9B3FC6"/>
</svg>
