<svg width="19" height="21" viewBox="0 0 19 21" fill="none" xmlns="http://www.w3.org/2000/svg">
<path d="M5.5 0.5V3H8V3.075C3.75 3.675 0.5 7.35 0.5 11.75C0.5 16.575 4.425 20.5 9.25 20.5C14.075 20.5 18 16.575 18 11.75C18 10.625 17.75 9.575 17.375 8.625L15.1 9.575C15.375 10.3 15.5 11 15.5 11.775C15.5 15.25 12.725 18.025 9.25 18.025C5.775 18.025 3 15.25 3 11.775C3 8.3 5.775 5.525 9.25 5.525C10 5.525 10.725 5.65 11.45 5.925L12.3 3.575C11.725 3.375 11.125 3.275 10.5 3.175V3.025H13V0.525H5.5V0.5ZM18 3.4C18 3.4 8.875 10.425 8.4 10.9C7.925 11.4 7.925 12.125 8.4 12.625C8.875 13.125 9.625 13.125 10.125 12.625C10.625 12.125 18.025 3.4 18.025 3.4H18Z" fill="#9B3FC6"/>
</svg>
