<svg width="30" height="25" viewBox="0 0 30 25" fill="none" xmlns="http://www.w3.org/2000/svg">
<path d="M14.9281 1.5625C7.7284 1.5625 1.89062 6.45996 1.89062 12.5C1.89062 18.54 7.7284 23.4375 14.9281 23.4375C22.1279 23.4375 27.9656 18.54 27.9656 12.5C27.9656 6.45996 22.1279 1.5625 14.9281 1.5625ZM14.9281 21.582C8.95066 21.582 4.10234 17.5146 4.10234 12.5C4.10234 7.48535 8.95066 3.41797 14.9281 3.41797C20.9056 3.41797 25.7539 7.48535 25.7539 12.5C25.7539 17.5146 20.9056 21.582 14.9281 21.582ZM16.3163 11.9336L15.5771 11.7896V8.51074C16.6829 8.6377 17.3668 9.21875 17.4832 9.93164C17.4978 10.0293 17.5967 10.1001 17.7131 10.1001H19.0198C19.1566 10.1001 19.2643 10 19.2526 9.88525C19.0751 8.36426 17.5822 7.3877 15.5887 7.21924V6.4209C15.5887 6.31348 15.484 6.22559 15.3559 6.22559H14.5382C14.4101 6.22559 14.3054 6.31348 14.3054 6.4209V7.22656C12.245 7.39502 10.6327 8.34961 10.6327 10.1318C10.6327 11.7822 12.082 12.5781 13.604 12.8833L14.3228 13.0371V16.521C13.0365 16.377 12.3148 15.8008 12.1664 15.0244C12.1489 14.9316 12.05 14.8633 11.9365 14.8633H10.592C10.4552 14.8633 10.3475 14.9609 10.3592 15.0757C10.4901 16.4185 11.7037 17.6538 14.2937 17.8125V18.5791C14.2937 18.6865 14.3985 18.7744 14.5265 18.7744H15.353C15.4811 18.7744 15.5858 18.6865 15.5858 18.5767L15.58 17.8027C17.8587 17.6343 19.4883 16.6113 19.4883 14.7754C19.4854 13.0811 18.2021 12.3242 16.3163 11.9336ZM14.3199 11.5381C14.1569 11.499 14.0202 11.4624 13.8834 11.416C12.8997 11.1182 12.4429 10.6372 12.4429 10.0171C12.4429 9.13086 13.2431 8.62549 14.3199 8.51074V11.5381ZM15.5771 16.5283V13.2642C15.6673 13.2861 15.7488 13.3032 15.8332 13.3179C17.2097 13.6694 17.6724 14.1577 17.6724 14.9072C17.6724 15.8618 16.8168 16.4355 15.5771 16.5283Z" fill="#1D3557"/>
</svg>
