<svg width="31" height="25" viewBox="0 0 31 25" fill="none" xmlns="http://www.w3.org/2000/svg">
<path d="M15.6945 2.0835C14.4666 2.0835 13.2663 2.38896 12.2454 2.96126C11.2244 3.53356 10.4287 4.34699 9.95878 5.29869C9.48888 6.25038 9.36594 7.29761 9.60549 8.30792C9.84504 9.31824 10.4363 10.2463 11.3046 10.9747C12.1728 11.7031 13.279 12.1991 14.4833 12.4001C15.6876 12.6011 16.9359 12.4979 18.0704 12.1037C19.2048 11.7095 20.1744 11.0419 20.8566 10.1854C21.5388 9.32892 21.9029 8.32194 21.9029 7.29183C21.9029 5.91049 21.2488 4.58573 20.0845 3.60898C18.9202 2.63223 17.3411 2.0835 15.6945 2.0835ZM15.6945 10.4168C14.9578 10.4168 14.2376 10.2336 13.625 9.89017C13.0125 9.54679 12.535 9.05873 12.2531 8.48771C11.9711 7.9167 11.8974 7.28836 12.0411 6.68217C12.1848 6.07598 12.5396 5.51916 13.0606 5.08212C13.5815 4.64508 14.2452 4.34745 14.9678 4.22688C15.6904 4.1063 16.4394 4.16818 17.12 4.40471C17.8007 4.64123 18.3824 5.04177 18.7918 5.55567C19.2011 6.06958 19.4195 6.67376 19.4195 7.29183C19.4195 8.12063 19.0271 8.91549 18.3285 9.50154C17.6299 10.0876 16.6825 10.4168 15.6945 10.4168ZM26.8695 21.8752V20.8335C26.8695 18.8996 25.9538 17.045 24.3238 15.6775C22.6938 14.3101 20.483 13.5418 18.1779 13.5418H13.2112C10.906 13.5418 8.69526 14.3101 7.06526 15.6775C5.43526 17.045 4.51953 18.8996 4.51953 20.8335V21.8752H7.00286V20.8335C7.00286 19.4522 7.65696 18.1274 8.82124 17.1506C9.98553 16.1739 11.5646 15.6252 13.2112 15.6252H18.1779C19.8244 15.6252 21.4035 16.1739 22.5678 17.1506C23.7321 18.1274 24.3862 19.4522 24.3862 20.8335V21.8752H26.8695Z" fill="#1D3557"/>
</svg>
