<svg width="31" height="25" viewBox="0 0 31 25" fill="none" xmlns="http://www.w3.org/2000/svg">
<path d="M15.6945 2.08325C14.4666 2.08325 13.2663 2.38872 12.2454 2.96101C11.2244 3.53331 10.4287 4.34674 9.95878 5.29844C9.48888 6.25014 9.36594 7.29736 9.60549 8.30768C9.84504 9.318 10.4363 10.246 11.3046 10.9744C12.1728 11.7028 13.279 12.1989 14.4833 12.3998C15.6876 12.6008 16.9359 12.4977 18.0704 12.1035C19.2048 11.7093 20.1744 11.0417 20.8566 10.1852C21.5388 9.32867 21.9029 8.3217 21.9029 7.29158C21.9029 5.91025 21.2488 4.58549 20.0845 3.60874C18.9202 2.63199 17.3411 2.08325 15.6945 2.08325ZM15.6945 10.4166C14.9578 10.4166 14.2376 10.2333 13.625 9.88993C13.0125 9.54655 12.535 9.05849 12.2531 8.48747C11.9711 7.91645 11.8974 7.28812 12.0411 6.68193C12.1848 6.07574 12.5396 5.51892 13.0606 5.08188C13.5815 4.64484 14.2452 4.34721 14.9678 4.22663C15.6904 4.10605 16.4394 4.16794 17.12 4.40446C17.8007 4.64099 18.3824 5.04152 18.7918 5.55543C19.2011 6.06933 19.4195 6.67352 19.4195 7.29158C19.4195 8.12039 19.0271 8.91524 18.3285 9.50129C17.6299 10.0873 16.6825 10.4166 15.6945 10.4166ZM26.8695 21.8749V20.8333C26.8695 18.8994 25.9538 17.0447 24.3238 15.6773C22.6938 14.3098 20.483 13.5416 18.1779 13.5416H13.2112C10.906 13.5416 8.69526 14.3098 7.06526 15.6773C5.43526 17.0447 4.51953 18.8994 4.51953 20.8333V21.8749H7.00286V20.8333C7.00286 19.4519 7.65696 18.1272 8.82124 17.1504C9.98553 16.1737 11.5646 15.6249 13.2112 15.6249H18.1779C19.8244 15.6249 21.4035 16.1737 22.5678 17.1504C23.7321 18.1272 24.3862 19.4519 24.3862 20.8333V21.8749H26.8695Z" fill="#1D3557"/>
</svg>
