<svg width="31" height="25" viewBox="0 0 31 25" fill="none" xmlns="http://www.w3.org/2000/svg">
<path d="M24.1838 6.875C23.2898 5.625 21.6508 5 19.8628 5H10.9228C9.13485 5 7.49585 5.625 6.60185 6.875C3.17485 11.25 2.42985 17.875 4.81385 19.25C7.19785 20.625 12.5618 14.625 15.3928 14.625C18.2238 14.625 23.4388 20.625 25.9718 19.25C28.3558 17.875 27.6108 11.25 24.1838 6.875ZM12.4128 11.25H10.9228V12.5H9.43285V11.25H7.94285V10H9.43285V8.75H10.9228V10H12.4128V11.25ZM20.4588 11.875C20.4588 12.5 19.8628 13 19.1178 13C18.3728 13 17.7768 12.5 17.7768 11.875C17.7768 11.25 18.3728 10.75 19.1178 10.75C19.8628 10.75 20.4588 11.25 20.4588 11.875ZM23.2898 9.375C23.2898 10 22.6938 10.5 21.9488 10.5C21.2038 10.5 20.6078 10 20.6078 9.375C20.6078 8.75 21.2038 8.25 21.9488 8.25C22.6938 8.25 23.2898 8.75 23.2898 9.375Z" fill="#1D3557"/>
</svg>
