<svg width="41" height="40" viewBox="0 0 41 40" fill="none" xmlns="http://www.w3.org/2000/svg">
<path d="M20.1953 7C16.7578 7 13.9453 10.5 13.9453 14.8125C13.9453 19.125 16.7578 22.625 20.1953 22.625C23.6328 22.625 26.4453 19.125 26.4453 14.8125C26.4453 10.5 23.6328 7 20.1953 7ZM13.6641 22.625C10.3516 22.7812 7.69531 25.5 7.69531 28.875V32H32.6953V28.875C32.6953 25.5 30.0703 22.7812 26.7266 22.625C25.0391 24.5312 22.7266 25.75 20.1953 25.75C17.6641 25.75 15.3516 24.5312 13.6641 22.625Z" fill="#9B3FC6"/>
<circle cx="20.6953" cy="20" r="19.5" stroke="#30895E"/>
</svg>
