<svg width="30" height="30" viewBox="0 0 30 30" fill="none" xmlns="http://www.w3.org/2000/svg">
<path fill-rule="evenodd" clip-rule="evenodd" d="M15.0255 3.75C12.2023 3.75 9.62984 4.6825 8.10797 5.44438C7.97047 5.51313 7.84234 5.58062 7.72297 5.64562C7.48672 5.77437 7.28547 5.89438 7.12547 6L8.85672 8.54875L9.67172 8.87312C12.8567 10.48 17.128 10.48 20.3136 8.87312L21.2386 8.39313L22.8761 6C22.5369 5.77875 22.1841 5.57898 21.8198 5.40187C20.3061 4.64812 17.7955 3.75 15.0255 3.75ZM10.9986 6.635C10.3855 6.52028 9.78005 6.36833 9.18547 6.18C10.6111 5.54687 12.7361 4.875 15.0248 4.875C16.6105 4.875 18.1098 5.1975 19.3498 5.60625C17.8967 5.81063 16.3461 6.1575 14.8686 6.58437C13.7061 6.92062 12.3473 6.88438 10.9986 6.635ZM20.9736 9.8L20.8205 9.8775C17.3161 11.645 12.6686 11.645 9.16422 9.8775L9.01922 9.80375C3.75547 15.5794 -0.26328 26.2481 15.0255 26.2481C30.313 26.2481 26.1961 15.38 20.9736 9.8ZM14.3755 15C14.0439 15 13.726 15.1317 13.4916 15.3661C13.2572 15.6005 13.1255 15.9185 13.1255 16.25C13.1255 16.5815 13.2572 16.8995 13.4916 17.1339C13.726 17.3683 14.0439 17.5 14.3755 17.5V15ZM15.6255 13.75V13.125H14.3755V13.75C13.7124 13.75 13.0765 14.0134 12.6077 14.4822C12.1389 14.9511 11.8755 15.587 11.8755 16.25C11.8755 16.913 12.1389 17.5489 12.6077 18.0178C13.0765 18.4866 13.7124 18.75 14.3755 18.75V21.25C14.117 21.2501 13.8648 21.17 13.6537 21.0208C13.4426 20.8716 13.2829 20.6606 13.1967 20.4169C13.1415 20.2606 13.0265 20.1326 12.8769 20.0611C12.7274 19.9896 12.5555 19.9804 12.3992 20.0356C12.2429 20.0908 12.1149 20.2059 12.0434 20.3554C11.9719 20.505 11.9628 20.6768 12.018 20.8331C12.1904 21.3206 12.5096 21.7427 12.9318 22.0412C13.354 22.3397 13.8584 22.5 14.3755 22.5V23.125H15.6255V22.5C16.2885 22.5 16.9244 22.2366 17.3932 21.7678C17.8621 21.2989 18.1255 20.663 18.1255 20C18.1255 19.337 17.8621 18.7011 17.3932 18.2322C16.9244 17.7634 16.2885 17.5 15.6255 17.5V15C16.1692 15 16.6323 15.3469 16.8048 15.8331C16.8304 15.9127 16.8717 15.9863 16.9263 16.0496C16.9808 16.1129 17.0475 16.1647 17.1224 16.2018C17.1973 16.2389 17.2788 16.2606 17.3622 16.2656C17.4456 16.2706 17.5292 16.2589 17.608 16.231C17.6868 16.2032 17.7592 16.1598 17.821 16.1035C17.8827 16.0472 17.9325 15.9791 17.9675 15.9032C18.0025 15.8273 18.0218 15.7451 18.0245 15.6616C18.0272 15.5781 18.013 15.4948 17.983 15.4169C17.8106 14.9294 17.4913 14.5073 17.0691 14.2088C16.6469 13.9103 16.1425 13.75 15.6255 13.75ZM15.6255 18.75V21.25C15.957 21.25 16.2749 21.1183 16.5094 20.8839C16.7438 20.6495 16.8755 20.3315 16.8755 20C16.8755 19.6685 16.7438 19.3505 16.5094 19.1161C16.2749 18.8817 15.957 18.75 15.6255 18.75Z" fill="#20A926"/>
</svg>
