<svg width="31" height="30" viewBox="0 0 31 30" fill="none" xmlns="http://www.w3.org/2000/svg">
<path fill-rule="evenodd" clip-rule="evenodd" d="M15.127 3.75C12.3039 3.75 9.73141 4.6825 8.20953 5.44438C8.07203 5.51313 7.94391 5.58062 7.82453 5.64562C7.58828 5.77437 7.38703 5.89438 7.22703 6L8.95828 8.54875L9.77328 8.87312C12.9583 10.48 17.2295 10.48 20.4152 8.87312L21.3402 8.39313L22.9777 6C22.6384 5.77875 22.2856 5.57898 21.9214 5.40187C20.4077 4.64812 17.897 3.75 15.127 3.75ZM11.1002 6.635C10.4871 6.52028 9.88161 6.36833 9.28703 6.18C10.7127 5.54687 12.8377 4.875 15.1264 4.875C16.712 4.875 18.2114 5.1975 19.4514 5.60625C17.9983 5.81063 16.4477 6.1575 14.9702 6.58437C13.8077 6.92062 12.4489 6.88438 11.1002 6.635ZM21.0752 9.8L20.922 9.8775C17.4177 11.645 12.7702 11.645 9.26578 9.8775L9.12078 9.80375C3.85703 15.5794 -0.161717 26.2481 15.127 26.2481C30.4145 26.2481 26.2977 15.38 21.0752 9.8ZM14.477 15C14.1455 15 13.8276 15.1317 13.5931 15.3661C13.3587 15.6005 13.227 15.9185 13.227 16.25C13.227 16.5815 13.3587 16.8995 13.5931 17.1339C13.8276 17.3683 14.1455 17.5 14.477 17.5V15ZM15.727 13.75V13.125H14.477V13.75C13.814 13.75 13.1781 14.0134 12.7093 14.4822C12.2404 14.9511 11.977 15.587 11.977 16.25C11.977 16.913 12.2404 17.5489 12.7093 18.0178C13.1781 18.4866 13.814 18.75 14.477 18.75V21.25C14.2185 21.2501 13.9664 21.17 13.7552 21.0208C13.5441 20.8716 13.3845 20.6606 13.2983 20.4169C13.2431 20.2606 13.1281 20.1326 12.9785 20.0611C12.8289 19.9896 12.6571 19.9804 12.5008 20.0356C12.3445 20.0908 12.2165 20.2059 12.145 20.3554C12.0735 20.505 12.0643 20.6768 12.1195 20.8331C12.2919 21.3206 12.6112 21.7427 13.0334 22.0412C13.4556 22.3397 13.96 22.5 14.477 22.5V23.125H15.727V22.5C16.3901 22.5 17.026 22.2366 17.4948 21.7678C17.9636 21.2989 18.227 20.663 18.227 20C18.227 19.337 17.9636 18.7011 17.4948 18.2322C17.026 17.7634 16.3901 17.5 15.727 17.5V15C16.2708 15 16.7339 15.3469 16.9064 15.8331C16.932 15.9127 16.9733 15.9863 17.0278 16.0496C17.0824 16.1129 17.149 16.1647 17.2239 16.2018C17.2988 16.2389 17.3804 16.2606 17.4638 16.2656C17.5472 16.2706 17.6308 16.2589 17.7096 16.231C17.7884 16.2032 17.8608 16.1598 17.9225 16.1035C17.9843 16.0472 18.0341 15.9791 18.0691 15.9032C18.104 15.8273 18.1234 15.7451 18.1261 15.6616C18.1287 15.5781 18.1146 15.4948 18.0845 15.4169C17.9121 14.9294 17.5929 14.5073 17.1707 14.2088C16.7485 13.9103 16.2441 13.75 15.727 13.75ZM15.727 18.75V21.25C16.0586 21.25 16.3765 21.1183 16.6109 20.8839C16.8453 20.6495 16.977 20.3315 16.977 20C16.977 19.6685 16.8453 19.3505 16.6109 19.1161C16.3765 18.8817 16.0586 18.75 15.727 18.75Z" fill="#20A926"/>
</svg>
