<svg width="31" height="30" viewBox="0 0 31 30" fill="none" xmlns="http://www.w3.org/2000/svg">
<path fill-rule="evenodd" clip-rule="evenodd" d="M15.0723 3.75C12.2492 3.75 9.67672 4.6825 8.15484 5.44438C8.01734 5.51313 7.88922 5.58062 7.76984 5.64562C7.53359 5.77437 7.33234 5.89438 7.17234 6L8.90359 8.54875L9.71859 8.87312C12.9036 10.48 17.1748 10.48 20.3605 8.87312L21.2855 8.39313L22.923 6C22.5837 5.77875 22.231 5.57898 21.8667 5.40187C20.353 4.64812 17.8423 3.75 15.0723 3.75ZM11.0455 6.635C10.4324 6.52028 9.82692 6.36833 9.23234 6.18C10.658 5.54687 12.783 4.875 15.0717 4.875C16.6573 4.875 18.1567 5.1975 19.3967 5.60625C17.9436 5.81063 16.393 6.1575 14.9155 6.58437C13.753 6.92062 12.3942 6.88438 11.0455 6.635ZM21.0205 9.8L20.8673 9.8775C17.363 11.645 12.7155 11.645 9.21109 9.8775L9.06609 9.80375C3.80234 15.5794 -0.216405 26.2481 15.0723 26.2481C30.3598 26.2481 26.243 15.38 21.0205 9.8ZM14.4223 15C14.0908 15 13.7729 15.1317 13.5385 15.3661C13.304 15.6005 13.1723 15.9185 13.1723 16.25C13.1723 16.5815 13.304 16.8995 13.5385 17.1339C13.7729 17.3683 14.0908 17.5 14.4223 17.5V15ZM15.6723 13.75V13.125H14.4223V13.75C13.7593 13.75 13.1234 14.0134 12.6546 14.4822C12.1857 14.9511 11.9223 15.587 11.9223 16.25C11.9223 16.913 12.1857 17.5489 12.6546 18.0178C13.1234 18.4866 13.7593 18.75 14.4223 18.75V21.25C14.1638 21.2501 13.9117 21.17 13.7006 21.0208C13.4895 20.8716 13.3298 20.6606 13.2436 20.4169C13.1884 20.2606 13.0734 20.1326 12.9238 20.0611C12.7742 19.9896 12.6024 19.9804 12.4461 20.0356C12.2898 20.0908 12.1618 20.2059 12.0903 20.3554C12.0188 20.505 12.0096 20.6768 12.0648 20.8331C12.2372 21.3206 12.5565 21.7427 12.9787 22.0412C13.4009 22.3397 13.9053 22.5 14.4223 22.5V23.125H15.6723V22.5C16.3354 22.5 16.9713 22.2366 17.4401 21.7678C17.909 21.2989 18.1723 20.663 18.1723 20C18.1723 19.337 17.909 18.7011 17.4401 18.2322C16.9713 17.7634 16.3354 17.5 15.6723 17.5V15C16.2161 15 16.6792 15.3469 16.8517 15.8331C16.8773 15.9127 16.9186 15.9863 16.9731 16.0496C17.0277 16.1129 17.0944 16.1647 17.1692 16.2018C17.2441 16.2389 17.3257 16.2606 17.4091 16.2656C17.4925 16.2706 17.5761 16.2589 17.6549 16.231C17.7337 16.2032 17.8061 16.1598 17.8678 16.1035C17.9296 16.0472 17.9794 15.9791 18.0144 15.9032C18.0493 15.8273 18.0687 15.7451 18.0714 15.6616C18.074 15.5781 18.0599 15.4948 18.0298 15.4169C17.8574 14.9294 17.5382 14.5073 17.116 14.2088C16.6938 13.9103 16.1894 13.75 15.6723 13.75ZM15.6723 18.75V21.25C16.0039 21.25 16.3218 21.1183 16.5562 20.8839C16.7906 20.6495 16.9223 20.3315 16.9223 20C16.9223 19.6685 16.7906 19.3505 16.5562 19.1161C16.3218 18.8817 16.0039 18.75 15.6723 18.75Z" fill="#8F0D0D"/>
</svg>
