<svg width="31" height="30" viewBox="0 0 31 30" fill="none" xmlns="http://www.w3.org/2000/svg">
<path fill-rule="evenodd" clip-rule="evenodd" d="M15.5294 3.75C12.7063 3.75 10.1338 4.6825 8.61188 5.44438C8.47438 5.51313 8.34625 5.58062 8.22688 5.64562C7.99063 5.77437 7.78938 5.89438 7.62938 6L9.36063 8.54875L10.1756 8.87312C13.3606 10.48 17.6319 10.48 20.8175 8.87312L21.7425 8.39313L23.38 6C23.0408 5.77875 22.688 5.57898 22.3237 5.40187C20.81 4.64812 18.2994 3.75 15.5294 3.75ZM11.5025 6.635C10.8895 6.52028 10.284 6.36833 9.68938 6.18C11.115 5.54687 13.24 4.875 15.5288 4.875C17.1144 4.875 18.6138 5.1975 19.8538 5.60625C18.4006 5.81063 16.85 6.1575 15.3725 6.58437C14.21 6.92062 12.8513 6.88438 11.5025 6.635ZM21.4775 9.8L21.3244 9.8775C17.82 11.645 13.1725 11.645 9.66813 9.8775L9.52313 9.80375C4.25938 15.5794 0.240626 26.2481 15.5294 26.2481C30.8169 26.2481 26.7 15.38 21.4775 9.8ZM14.8794 15C14.5479 15 14.2299 15.1317 13.9955 15.3661C13.7611 15.6005 13.6294 15.9185 13.6294 16.25C13.6294 16.5815 13.7611 16.8995 13.9955 17.1339C14.2299 17.3683 14.5479 17.5 14.8794 17.5V15ZM16.1294 13.75V13.125H14.8794V13.75C14.2163 13.75 13.5805 14.0134 13.1116 14.4822C12.6428 14.9511 12.3794 15.587 12.3794 16.25C12.3794 16.913 12.6428 17.5489 13.1116 18.0178C13.5805 18.4866 14.2163 18.75 14.8794 18.75V21.25C14.6209 21.2501 14.3687 21.17 14.1576 21.0208C13.9465 20.8716 13.7868 20.6606 13.7006 20.4169C13.6454 20.2606 13.5304 20.1326 13.3808 20.0611C13.2313 19.9896 13.0594 19.9804 12.9031 20.0356C12.7468 20.0908 12.6188 20.2059 12.5473 20.3554C12.4758 20.505 12.4667 20.6768 12.5219 20.8331C12.6943 21.3206 13.0136 21.7427 13.4358 22.0412C13.858 22.3397 14.3623 22.5 14.8794 22.5V23.125H16.1294V22.5C16.7924 22.5 17.4283 22.2366 17.8971 21.7678C18.366 21.2989 18.6294 20.663 18.6294 20C18.6294 19.337 18.366 18.7011 17.8971 18.2322C17.4283 17.7634 16.7924 17.5 16.1294 17.5V15C16.6731 15 17.1363 15.3469 17.3088 15.8331C17.3343 15.9127 17.3756 15.9863 17.4302 16.0496C17.4847 16.1129 17.5514 16.1647 17.6263 16.2018C17.7012 16.2389 17.7827 16.2606 17.8661 16.2656C17.9496 16.2706 18.0331 16.2589 18.1119 16.231C18.1907 16.2032 18.2631 16.1598 18.3249 16.1035C18.3866 16.0472 18.4365 15.9791 18.4714 15.9032C18.5064 15.8273 18.5257 15.7451 18.5284 15.6616C18.5311 15.5781 18.5169 15.4948 18.4869 15.4169C18.3145 14.9294 17.9952 14.5073 17.573 14.2088C17.1508 13.9103 16.6464 13.75 16.1294 13.75ZM16.1294 18.75V21.25C16.4609 21.25 16.7788 21.1183 17.0133 20.8839C17.2477 20.6495 17.3794 20.3315 17.3794 20C17.3794 19.6685 17.2477 19.3505 17.0133 19.1161C16.7788 18.8817 16.4609 18.75 16.1294 18.75Z" fill="#20A926"/>
</svg>
