<svg width="31" height="25" viewBox="0 0 31 25" fill="none" xmlns="http://www.w3.org/2000/svg">
<g clip-path="url(#clip0_2495_686)">
<path fill-rule="evenodd" clip-rule="evenodd" d="M15.4619 22.6564C20.7365 22.6564 24.7744 19.5627 24.7744 15.6252C24.7744 13.3392 23.5079 12.2033 21.2748 10.3392L21.2077 10.2814C19.321 8.70641 16.924 6.70328 15.9294 3.35328C15.3297 3.75328 14.756 4.25797 14.3202 4.84235C13.5156 5.92985 13.1636 7.3111 14.2345 9.10797C15.1155 10.5877 15.4824 12.6767 13.7167 14.158C12.5806 15.1111 10.8392 15.4705 9.24115 15.147C8.20338 14.9335 7.2694 14.4566 6.5666 13.7814C6.29177 14.3687 6.15149 14.9942 6.15312 15.6252C6.15312 19.5783 10.1836 22.6564 15.4619 22.6564ZM18.3208 1.17672C18.2519 0.531409 17.6261 0.014221 16.8998 0.228283C13.6683 1.17203 8.64888 4.97985 11.735 10.1564C12.3757 11.233 12.2659 12.0595 11.7406 12.5002C10.9602 13.1548 8.87238 13.2611 7.94112 11.2002C7.61891 10.4908 6.71374 10.0095 6.01344 10.4908C4.35767 11.6252 3.35938 13.597 3.35938 15.6252C3.35938 21.1127 8.94315 25.0002 15.4619 25.0002C21.9806 25.0002 27.5681 21.0939 27.5681 15.6252C27.5681 12.2861 25.4672 10.5314 23.262 8.69078C21.0457 6.84078 18.725 4.90172 18.3208 1.17516V1.17672Z" fill="#1D3557"/>
</g>
<defs>
<clipPath id="clip0_2495_686">
<rect width="29.8" height="25" fill="white" transform="translate(0.566406)"/>
</clipPath>
</defs>
</svg>
