<svg width="31" height="25" viewBox="0 0 31 25" fill="none" xmlns="http://www.w3.org/2000/svg">
<g clip-path="url(#clip0_2495_638)">
<path fill-rule="evenodd" clip-rule="evenodd" d="M15.4619 22.6562C20.7365 22.6562 24.7744 19.5624 24.7744 15.6249C24.7744 13.339 23.5079 12.203 21.2748 10.339L21.2077 10.2812C19.321 8.70617 16.924 6.70304 15.9294 3.35304C15.3297 3.75304 14.756 4.25773 14.3202 4.8421C13.5156 5.9296 13.1636 7.31085 14.2345 9.10773C15.1155 10.5874 15.4824 12.6765 13.7167 14.1577C12.5806 15.1109 10.8392 15.4702 9.24115 15.1468C8.20338 14.9333 7.2694 14.4564 6.5666 13.7812C6.29177 14.3685 6.15149 14.994 6.15312 15.6249C6.15312 19.578 10.1836 22.6562 15.4619 22.6562ZM18.3208 1.17648C18.2519 0.531164 17.6261 0.0139768 16.8998 0.228039C13.6683 1.17179 8.64888 4.9796 11.735 10.1562C12.3757 11.2327 12.2659 12.0593 11.7406 12.4999C10.9602 13.1546 8.87238 13.2609 7.94112 11.1999C7.61891 10.4905 6.71374 10.0093 6.01344 10.4905C4.35767 11.6249 3.35938 13.5968 3.35938 15.6249C3.35938 21.1124 8.94315 24.9999 15.4619 24.9999C21.9806 24.9999 27.5681 21.0937 27.5681 15.6249C27.5681 12.2859 25.4672 10.5312 23.262 8.69054C21.0457 6.84054 18.725 4.90148 18.3208 1.17491V1.17648Z" fill="#1D3557"/>
</g>
<defs>
<clipPath id="clip0_2495_638">
<rect width="29.8" height="25" fill="white" transform="translate(0.566406)"/>
</clipPath>
</defs>
</svg>
