<svg width="105" height="84" viewBox="0 0 105 84" fill="none" xmlns="http://www.w3.org/2000/svg">
<path d="M1.8135 25.5253C-3.6818 13.7206 6.15329 0.541228 19.0338 2.44946L40.0064 5.5565C41.9882 5.85011 44.0052 5.81079 45.974 5.44018L69.7956 0.956114C78.7546 -0.730282 87.5599 4.54745 90.2957 13.2436L99.5 42.5L103.075 51.4386C108.401 64.7532 96.7788 78.6456 82.7331 75.7539L69.4754 73.0243C66.222 72.3545 62.8467 72.598 59.7232 73.7278L36.3933 82.1663C26.3113 85.8129 15.2966 79.8928 12.7755 69.4722L2.88251 28.581C2.62813 27.5296 2.27004 26.506 1.8135 25.5253Z" fill="#034694"/>
</svg>
