<svg width="30" height="30" viewBox="0 0 30 30" fill="none" xmlns="http://www.w3.org/2000/svg">
<path d="M15 15C14.2583 15 13.5333 15.2199 12.9166 15.632C12.2999 16.044 11.8193 16.6297 11.5355 17.3149C11.2516 18.0002 11.1774 18.7542 11.3221 19.4816C11.4667 20.209 11.8239 20.8772 12.3483 21.4017C12.8728 21.9261 13.541 22.2833 14.2684 22.4279C14.9958 22.5726 15.7498 22.4984 16.4351 22.2145C17.1203 21.9307 17.706 21.4501 18.118 20.8334C18.5301 20.2167 18.75 19.4917 18.75 18.75C18.75 17.7554 18.3549 16.8016 17.6517 16.0983C16.9484 15.3951 15.9946 15 15 15ZM15 20C14.7528 20 14.5111 19.9267 14.3055 19.7893C14.1 19.652 13.9398 19.4568 13.8451 19.2284C13.7505 18.9999 13.7258 18.7486 13.774 18.5061C13.8222 18.2637 13.9413 18.0409 14.1161 17.8661C14.2909 17.6913 14.5137 17.5722 14.7561 17.524C14.9986 17.4758 15.2499 17.5005 15.4784 17.5951C15.7068 17.6898 15.902 17.85 16.0393 18.0555C16.1767 18.2611 16.25 18.5028 16.25 18.75C16.25 19.0815 16.1183 19.3995 15.8839 19.6339C15.6495 19.8683 15.3315 20 15 20ZM14.1125 12.1375C14.2314 12.2513 14.3716 12.3405 14.525 12.4C14.6746 12.4661 14.8364 12.5003 15 12.5003C15.1636 12.5003 15.3254 12.4661 15.475 12.4C15.6284 12.3405 15.7686 12.2513 15.8875 12.1375L18.75 9.325C18.992 9.08299 19.128 8.75475 19.128 8.4125C19.128 8.07025 18.992 7.74201 18.75 7.5C18.508 7.25799 18.1798 7.12203 17.8375 7.12203C17.4952 7.12203 17.167 7.25799 16.925 7.5L16.25 8.2375V3.75C16.25 3.41848 16.1183 3.10054 15.8839 2.86612C15.6495 2.6317 15.3315 2.5 15 2.5C14.6685 2.5 14.3505 2.6317 14.1161 2.86612C13.8817 3.10054 13.75 3.41848 13.75 3.75V8.2375L13.075 7.5C12.833 7.25799 12.5048 7.12203 12.1625 7.12203C11.8202 7.12203 11.492 7.25799 11.25 7.5C11.008 7.74201 10.872 8.07025 10.872 8.4125C10.872 8.75475 11.008 9.08299 11.25 9.325L14.1125 12.1375ZM23.75 18.75C23.75 18.5028 23.6767 18.2611 23.5393 18.0555C23.402 17.85 23.2068 17.6898 22.9784 17.5951C22.7499 17.5005 22.4986 17.4758 22.2561 17.524C22.0137 17.5722 21.7909 17.6913 21.6161 17.8661C21.4413 18.0409 21.3223 18.2637 21.274 18.5061C21.2258 18.7486 21.2505 18.9999 21.3451 19.2284C21.4398 19.4568 21.6 19.652 21.8055 19.7893C22.0111 19.9267 22.2528 20 22.5 20C22.8315 20 23.1495 19.8683 23.3839 19.6339C23.6183 19.3995 23.75 19.0815 23.75 18.75ZM25 10H21.25C20.9185 10 20.6005 10.1317 20.3661 10.3661C20.1317 10.6005 20 10.9185 20 11.25C20 11.5815 20.1317 11.8995 20.3661 12.1339C20.6005 12.3683 20.9185 12.5 21.25 12.5H25C25.3315 12.5 25.6495 12.6317 25.8839 12.8661C26.1183 13.1005 26.25 13.4185 26.25 13.75V23.75C26.25 24.0815 26.1183 24.3995 25.8839 24.6339C25.6495 24.8683 25.3315 25 25 25H5C4.66848 25 4.35054 24.8683 4.11612 24.6339C3.8817 24.3995 3.75 24.0815 3.75 23.75V13.75C3.75 13.4185 3.8817 13.1005 4.11612 12.8661C4.35054 12.6317 4.66848 12.5 5 12.5H8.75C9.08152 12.5 9.39946 12.3683 9.63388 12.1339C9.8683 11.8995 10 11.5815 10 11.25C10 10.9185 9.8683 10.6005 9.63388 10.3661C9.39946 10.1317 9.08152 10 8.75 10H5C4.00544 10 3.05161 10.3951 2.34835 11.0983C1.64509 11.8016 1.25 12.7554 1.25 13.75V23.75C1.25 24.7446 1.64509 25.6984 2.34835 26.4017C3.05161 27.1049 4.00544 27.5 5 27.5H25C25.9946 27.5 26.9484 27.1049 27.6517 26.4017C28.3549 25.6984 28.75 24.7446 28.75 23.75V13.75C28.75 12.7554 28.3549 11.8016 27.6517 11.0983C26.9484 10.3951 25.9946 10 25 10ZM6.25 18.75C6.25 18.9972 6.32331 19.2389 6.46066 19.4445C6.59801 19.65 6.79324 19.8102 7.02165 19.9049C7.25005 19.9995 7.50139 20.0242 7.74386 19.976C7.98634 19.9277 8.20907 19.8087 8.38388 19.6339C8.5587 19.4591 8.67775 19.2363 8.72598 18.9939C8.77421 18.7514 8.74946 18.5001 8.65485 18.2716C8.56024 18.0432 8.40002 17.848 8.19446 17.7107C7.9889 17.5733 7.74723 17.5 7.5 17.5C7.16848 17.5 6.85054 17.6317 6.61612 17.8661C6.3817 18.1005 6.25 18.4185 6.25 18.75Z" fill="#9618A2"/>
</svg>
