<svg width="31" height="30" viewBox="0 0 31 30" fill="none" xmlns="http://www.w3.org/2000/svg">
<path d="M15.5 15C14.7583 15 14.0333 15.2199 13.4166 15.632C12.7999 16.044 12.3193 16.6297 12.0355 17.3149C11.7516 18.0002 11.6774 18.7542 11.8221 19.4816C11.9667 20.209 12.3239 20.8772 12.8483 21.4017C13.3728 21.9261 14.041 22.2833 14.7684 22.4279C15.4958 22.5726 16.2498 22.4984 16.9351 22.2145C17.6203 21.9307 18.206 21.4501 18.618 20.8334C19.0301 20.2167 19.25 19.4917 19.25 18.75C19.25 17.7554 18.8549 16.8016 18.1517 16.0983C17.4484 15.3951 16.4946 15 15.5 15ZM15.5 20C15.2528 20 15.0111 19.9267 14.8055 19.7893C14.6 19.652 14.4398 19.4568 14.3451 19.2284C14.2505 18.9999 14.2258 18.7486 14.274 18.5061C14.3222 18.2637 14.4413 18.0409 14.6161 17.8661C14.7909 17.6913 15.0137 17.5722 15.2561 17.524C15.4986 17.4758 15.7499 17.5005 15.9784 17.5951C16.2068 17.6898 16.402 17.85 16.5393 18.0555C16.6767 18.2611 16.75 18.5028 16.75 18.75C16.75 19.0815 16.6183 19.3995 16.3839 19.6339C16.1495 19.8683 15.8315 20 15.5 20ZM14.6125 12.1375C14.7314 12.2513 14.8716 12.3405 15.025 12.4C15.1746 12.4661 15.3364 12.5003 15.5 12.5003C15.6636 12.5003 15.8254 12.4661 15.975 12.4C16.1284 12.3405 16.2686 12.2513 16.3875 12.1375L19.25 9.325C19.492 9.08299 19.628 8.75475 19.628 8.4125C19.628 8.07025 19.492 7.74201 19.25 7.5C19.008 7.25799 18.6798 7.12203 18.3375 7.12203C17.9952 7.12203 17.667 7.25799 17.425 7.5L16.75 8.2375V3.75C16.75 3.41848 16.6183 3.10054 16.3839 2.86612C16.1495 2.6317 15.8315 2.5 15.5 2.5C15.1685 2.5 14.8505 2.6317 14.6161 2.86612C14.3817 3.10054 14.25 3.41848 14.25 3.75V8.2375L13.575 7.5C13.333 7.25799 13.0048 7.12203 12.6625 7.12203C12.3202 7.12203 11.992 7.25799 11.75 7.5C11.508 7.74201 11.372 8.07025 11.372 8.4125C11.372 8.75475 11.508 9.08299 11.75 9.325L14.6125 12.1375ZM24.25 18.75C24.25 18.5028 24.1767 18.2611 24.0393 18.0555C23.902 17.85 23.7068 17.6898 23.4784 17.5951C23.2499 17.5005 22.9986 17.4758 22.7561 17.524C22.5137 17.5722 22.2909 17.6913 22.1161 17.8661C21.9413 18.0409 21.8223 18.2637 21.774 18.5061C21.7258 18.7486 21.7505 18.9999 21.8451 19.2284C21.9398 19.4568 22.1 19.652 22.3055 19.7893C22.5111 19.9267 22.7528 20 23 20C23.3315 20 23.6495 19.8683 23.8839 19.6339C24.1183 19.3995 24.25 19.0815 24.25 18.75ZM25.5 10H21.75C21.4185 10 21.1005 10.1317 20.8661 10.3661C20.6317 10.6005 20.5 10.9185 20.5 11.25C20.5 11.5815 20.6317 11.8995 20.8661 12.1339C21.1005 12.3683 21.4185 12.5 21.75 12.5H25.5C25.8315 12.5 26.1495 12.6317 26.3839 12.8661C26.6183 13.1005 26.75 13.4185 26.75 13.75V23.75C26.75 24.0815 26.6183 24.3995 26.3839 24.6339C26.1495 24.8683 25.8315 25 25.5 25H5.5C5.16848 25 4.85054 24.8683 4.61612 24.6339C4.3817 24.3995 4.25 24.0815 4.25 23.75V13.75C4.25 13.4185 4.3817 13.1005 4.61612 12.8661C4.85054 12.6317 5.16848 12.5 5.5 12.5H9.25C9.58152 12.5 9.89946 12.3683 10.1339 12.1339C10.3683 11.8995 10.5 11.5815 10.5 11.25C10.5 10.9185 10.3683 10.6005 10.1339 10.3661C9.89946 10.1317 9.58152 10 9.25 10H5.5C4.50544 10 3.55161 10.3951 2.84835 11.0983C2.14509 11.8016 1.75 12.7554 1.75 13.75V23.75C1.75 24.7446 2.14509 25.6984 2.84835 26.4017C3.55161 27.1049 4.50544 27.5 5.5 27.5H25.5C26.4946 27.5 27.4484 27.1049 28.1517 26.4017C28.8549 25.6984 29.25 24.7446 29.25 23.75V13.75C29.25 12.7554 28.8549 11.8016 28.1517 11.0983C27.4484 10.3951 26.4946 10 25.5 10ZM6.75 18.75C6.75 18.9972 6.82331 19.2389 6.96066 19.4445C7.09801 19.65 7.29324 19.8102 7.52165 19.9049C7.75005 19.9995 8.00139 20.0242 8.24386 19.976C8.48634 19.9277 8.70907 19.8087 8.88388 19.6339C9.0587 19.4591 9.17775 19.2363 9.22598 18.9939C9.27421 18.7514 9.24946 18.5001 9.15485 18.2716C9.06024 18.0432 8.90002 17.848 8.69446 17.7107C8.4889 17.5733 8.24723 17.5 8 17.5C7.66848 17.5 7.35054 17.6317 7.11612 17.8661C6.8817 18.1005 6.75 18.4185 6.75 18.75Z" fill="#161ED3"/>
</svg>
